<?xml version="1.0" encoding="UTF-8"?><svg id="a" xmlns="http://www.w3.org/2000/svg" viewBox="0 0 50 50"><g><circle cx="25" cy="25" r="22.5" style="fill:#003db4;"/><path d="M25,5c11.03,0,20,8.97,20,20s-8.97,20-20,20S5,36.03,5,25,13.97,5,25,5m0-5C11.19,0,0,11.19,0,25s11.19,25,25,25,25-11.19,25-25S38.81,0,25,0h0Z" style="fill:#000b35;"/></g><g><rect x="23.5" y="24.5" width="3" height="12" style="fill:#003db4;"/><polygon points="29 22 21 22 21 39 29 39 29 22 29 22" style="fill:#000b35;"/></g><g><circle cx="25" cy="15" r="2.5" style="fill:#003db4;"/><path d="M25,15h0s0,0,0,0m0-5c-2.76,0-5,2.24-5,5s2.24,5,5,5,5-2.24,5-5-2.24-5-5-5h0Z" style="fill:#000b35;"/></g><g><rect x="17" y="22" width="5" height="2" style="fill:#003db4;"/><polygon points="22 22 17 22 17 24 22 24 22 22 22 22" style="fill:#000b35;"/></g><g><rect x="19" y="38" width="13" height="1" style="fill:#003db4;"/><polygon points="32 38 19 38 19 39 32 39 32 38 32 38" style="fill:#000b35;"/></g></svg>