<?xml version="1.0" encoding="UTF-8"?><svg id="a" xmlns="http://www.w3.org/2000/svg" viewBox="0 0 50 50"><g><circle cx="25" cy="25" r="22.5" style="fill:#fff;"/><path d="M25,5c11.03,0,20,8.97,20,20s-8.97,20-20,20S5,36.03,5,25,13.97,5,25,5m0-5C11.19,0,0,11.19,0,25s11.19,25,25,25,25-11.19,25-25S38.81,0,25,0h0Z"/></g><g><path d="M3.88,32.76c-.91-2.47-1.38-5.1-1.38-7.76C2.5,12.59,12.59,2.5,25,2.5s22.5,10.09,22.5,22.5c0,2.66-.47,5.29-1.38,7.76-5.18-6.42-12.94-10.26-21.12-10.26s-15.94,3.84-21.12,10.26Z" style="fill:#fff;"/><path d="M25,5c11.03,0,20,8.97,20,20,0,.92-.06,1.84-.19,2.74-5.41-4.91-12.45-7.74-19.81-7.74s-14.4,2.84-19.81,7.74c-.13-.91-.19-1.82-.19-2.74C5,13.97,13.97,5,25,5M25,0C11.19,0,0,11.19,0,25c0,4.66,1.28,9.01,3.49,12.75,4.36-7.63,12.36-12.75,21.51-12.75s17.15,5.12,21.51,12.75c2.22-3.73,3.49-8.09,3.49-12.75C50,11.19,38.81,0,25,0h0Z"/></g><g><circle cx="25" cy="17" r="8.5" style="fill:#fff;"/><path d="M25,11c3.31,0,6,2.69,6,6s-2.69,6-6,6-6-2.69-6-6,2.69-6,6-6m0-5c-6.08,0-11,4.92-11,11s4.92,11,11,11,11-4.92,11-11-4.92-11-11-11h0Z"/></g></svg>