<?xml version="1.0" encoding="UTF-8"?><svg id="a" xmlns="http://www.w3.org/2000/svg" viewBox="0 0 50 50"><g><rect x="28.91" y="27.89" width="2" height="17.41" transform="translate(-14.91 21.58) rotate(-32.22)" style="fill:#fff;"/><polygon points="26.9 25.25 20.98 28.98 32.92 47.94 38.84 44.21 26.9 25.25 26.9 25.25"/></g><g><circle cx="18" cy="18" r="11.5" style="fill:#fff;"/><path d="M18,9c4.96,0,9,4.04,9,9s-4.04,9-9,9-9-4.04-9-9,4.04-9,9-9m0-5c-7.73,0-14,6.27-14,14s6.27,14,14,14,14-6.27,14-14-6.27-14-14-14h0Z"/></g></svg>