<?xml version="1.0" encoding="UTF-8"?><svg id="a" xmlns="http://www.w3.org/2000/svg" viewBox="0 0 50 50"><g><circle cx="25" cy="25" r="22.5" style="fill:#c1272d;"/><path d="M25,5c11.03,0,20,8.97,20,20s-8.97,20-20,20S5,36.03,5,25,13.97,5,25,5m0-5C11.19,0,0,11.19,0,25s11.19,25,25,25,25-11.19,25-25S38.81,0,25,0h0Z" style="fill:#3f0001;"/></g><g><g><rect x="24.84" y="12.09" width=".55" height="25.91" transform="translate(-10.35 25.09) rotate(-45)" style="fill:#c1272d;"/><polygon points="16.14 12.15 12.22 16.08 34.08 37.93 38 34.01 16.14 12.15 16.14 12.15" style="fill:#3f0001;"/></g><g><rect x="12.09" y="24.45" width="25.91" height=".55" transform="translate(-10.15 24.95) rotate(-45)" style="fill:#c1272d;"/><polygon points="34.01 11.83 12.16 33.69 16.08 37.61 37.94 15.76 34.01 11.83 34.01 11.83" style="fill:#3f0001;"/></g></g></svg>