<?xml version="1.0" encoding="UTF-8"?><svg id="a" xmlns="http://www.w3.org/2000/svg" viewBox="0 0 50 50"><g><circle cx="25" cy="25" r="22.5" style="fill:#144a00;"/><path d="M25,5c11.03,0,20,8.97,20,20s-8.97,20-20,20S5,36.03,5,25,13.97,5,25,5m0-5C11.19,0,0,11.19,0,25s11.19,25,25,25,25-11.19,25-25S38.81,0,25,0h0Z" style="fill:#012a00;"/></g><g><g><rect x="15.33" y="28.37" width=".55" height="10.35" transform="translate(-19.15 20.86) rotate(-45)" style="fill:#144a00;"/><polygon points="12.14 26.15 8.22 30.08 19.07 40.93 22.99 37.01 12.14 26.15 12.14 26.15" style="fill:#012a00;"/></g><g><rect x="15.09" y="27.45" width="25.91" height=".55" transform="translate(-11.39 27.95) rotate(-45)" style="fill:#144a00;"/><polygon points="37.01 14.83 15.16 36.69 19.08 40.61 40.94 18.76 37.01 14.83 37.01 14.83" style="fill:#012a00;"/></g></g></svg>